<?xml version="1.0" encoding="utf-8"?>
<!-- Generator: Adobe Illustrator 16.0.4, SVG Export Plug-In . SVG Version: 6.00 Build 0)  -->
<!DOCTYPE svg PUBLIC "-//W3C//DTD SVG 1.1//EN" "http://www.w3.org/Graphics/SVG/1.1/DTD/svg11.dtd">
<svg version="1.1" id="Layer_3" xmlns="http://www.w3.org/2000/svg" xmlns:xlink="http://www.w3.org/1999/xlink" x="0px" y="0px"
	 width="200px" height="100px" viewBox="0 0 200 100" enable-background="new 0 0 200 100" xml:space="preserve">
<g>
	<path fill="#8C8D90" d="M18.455,34.683h7.183l4.692,24.924h-6.011l-0.77-4.582H13.507l-2.456,4.582H4.748L18.455,34.683z
		 M15.816,50.516h7l-1.723-9.749L15.816,50.516z"/>
	<path fill="#8C8D90" d="M45.794,46.411c-1.612-0.953-3.554-1.54-5.277-1.54c-1.283,0-2.419,0.44-2.419,1.502
		c0,0.586,0.403,0.917,1.393,1.209l2.712,0.879c2.785,0.879,3.885,2.528,3.885,4.472c0,4.398-3.518,7.038-8.649,7.038
		c-3.299,0-5.755-0.918-7.074-1.649l1.686-4.803c1.576,0.917,3.592,1.797,5.461,1.797c1.54,0,2.346-0.33,2.346-1.282
		c0-0.55-0.623-0.99-1.649-1.283l-2.749-0.916c-2.346-0.807-3.665-2.383-3.665-4.582c0-4.435,3.775-7.147,9.346-7.147
		c2.456,0,5.424,0.696,6.744,1.393L45.794,46.411z"/>
	<path fill="#8C8D90" d="M58.322,35.562l-0.843,4.875h6.414l-0.843,4.764h-6.414l-1.173,6.671c-0.329,1.943,0.074,2.748,1.649,2.748
		c1.283,0,2.75-0.658,3.702-1.281l1.026,4.875c-2.088,1.136-4.581,1.76-7,1.76c-4.398,0-6.451-2.494-5.644-7.037l1.356-7.734H47.4
		l0.843-4.764h3.335l1.612-4.875L58.322,35.562L58.322,35.562z"/>
	<path fill="#8C8D90" d="M74.152,39.924c5.279,0,8.76,3.665,8.76,8.724c0,6.67-5.167,11.473-11.692,11.473
		c-5.203,0-8.723-3.629-8.723-8.649C62.498,44.799,67.702,39.924,74.152,39.924z M71.917,54.549c2.858,0,5.058-2.42,5.058-5.279
		c0-2.089-1.282-3.738-3.481-3.738c-2.786,0-5.059,2.419-5.059,5.314C68.435,52.899,69.754,54.549,71.917,54.549z"/>
	<path fill="#8C8D90" d="M104.131,40.438l-2.199,12.607c-0.183,0.953-0.146,1.76,0.733,1.76c0.623,0,1.246-0.219,1.906-0.513
		l-0.66,4.875c-1.026,0.439-2.64,0.807-4.361,0.807c-2.016,0-3.482-0.696-3.959-2.384c-1.576,1.541-3.738,2.384-6.341,2.384
		c-4.874,0-6.451-3.556-5.57-8.468l1.942-11.068h6.084l-1.795,10.188c-0.44,2.529,0.073,3.738,2.345,3.738
		c1.686,0,2.932-0.989,3.702-1.941l2.125-11.985H104.131z"/>
	<path fill="#8C8D90" d="M114.171,40.438l-0.366,1.942c1.575-1.466,3.408-2.272,5.79-2.272c4.802,0,6.378,3.775,5.57,8.467
		l-0.769,4.471c-0.184,0.953-0.11,1.76,0.769,1.76c0.551,0,1.285-0.219,1.87-0.513l-0.66,4.983
		c-1.062,0.402-2.419,0.697-4.251,0.697c-2.968,0-4.764-1.504-4.068-5.424l0.843-4.948c0.404-2.456-0.401-3.812-2.38-3.812
		c-1.649,0-3.008,1.283-3.703,2.383L110.8,59.606h-6.084l3.371-19.169H114.171z"/>
	<path fill="#8C8D90" d="M150.124,33.583l-3.408,19.461c-0.184,0.99-0.112,1.76,0.769,1.76c0.551,0,1.137-0.219,1.87-0.513
		l-0.623,4.875c-1.026,0.402-2.492,0.807-4.289,0.807c-2.016,0-3.518-0.624-4.03-2.311c-1.356,1.394-3.263,2.311-5.755,2.311
		c-4.764,0-7.514-3.666-7.514-8.247c0-6.927,4.472-11.619,10.189-11.619c2.272,0,4.105,0.843,5.241,2.052l1.502-8.576H150.124z
		 M136.893,54.62c1.283,0,2.823-0.658,3.701-1.354l1.136-6.414c-0.769-0.843-1.94-1.393-3.224-1.393
		c-2.933,0-5.095,2.198-5.095,5.498C133.411,53.155,134.693,54.62,136.893,54.62z"/>
	<path fill="#8C8D90" d="M156.683,53.045c-0.146,0.953-0.11,1.76,0.807,1.76c0.732,0,1.649-0.365,1.868-0.513l-0.659,4.983
		c-0.477,0.184-2.272,0.697-4.326,0.697c-2.931,0-4.69-1.54-4.03-5.424l2.493-14.111h6.084L156.683,53.045z M157.379,32.264
		c1.686,0,2.821,0.586,2.821,2.199c0,2.455-1.539,3.372-3.812,3.372c-1.76,0-2.895-0.623-2.895-2.235
		C153.494,33.144,155.068,32.264,157.379,32.264z"/>
	<path fill="#8C8D90" d="M160.97,41.244h3.226l0.184-1.063c0.621-3.774,2.821-6.963,7.733-6.963c1.905,0,3.774,0.585,4.8,1.136
		l-1.832,4.691c-0.659-0.33-1.686-0.806-2.639-0.806c-1.174,0-1.76,0.77-1.979,1.979l-0.184,1.026h4.983l-0.842,4.765h-4.986
		l-3.59,20.49h-6.084l3.628-20.49h-3.226L160.97,41.244z"/>
	<path fill="#8C8D90" d="M182.169,40.438l1.979,12.462l6.378-12.462h6.304L186.018,59.68c-2.748,4.874-4.801,7.183-9.346,7.183
		c-1.648,0-3.482-0.658-4.325-1.283l1.612-4.581c0.845,0.477,2.017,0.88,3.227,0.88c1.43,0,2.234-0.734,3.041-2.126l0.44-0.771
		l-5.021-18.545L182.169,40.438L182.169,40.438z"/>
</g>
</svg>
