<?xml version="1.0" encoding="utf-8"?>
<!-- Generator: Adobe Illustrator 16.0.4, SVG Export Plug-In . SVG Version: 6.00 Build 0)  -->
<!DOCTYPE svg PUBLIC "-//W3C//DTD SVG 1.1//EN" "http://www.w3.org/Graphics/SVG/1.1/DTD/svg11.dtd">
<svg version="1.1" id="Layer_1" xmlns="http://www.w3.org/2000/svg" xmlns:xlink="http://www.w3.org/1999/xlink" x="0px" y="0px"
	 width="131px" height="44px" viewBox="0 0 131 44" enable-background="new 0 0 131 44" xml:space="preserve">
<g>
	<path fill="#FFFFFF" d="M1.3,34.9C2.5,34.3,5,33.1,5,30.3V9.9H2.1V6.2h10.5v3.7H9.8v20.4c0,5.4-3.5,6.5-7.1,7.9L1.3,34.9z"/>
	<path fill="#FFFFFF" d="M15,18.5c0-7.6,5.4-12.9,12.9-12.9c7.5,0,12.9,5.3,12.9,12.9c0,7.6-5.4,12.8-12.9,12.8
		C20.4,31.4,15,26.1,15,18.5z M35.9,18.5c0-5.5-3.4-8.9-8-8.9c-4.6,0-8,3.4-8,8.9c0,5.6,3.4,8.9,8,8.9
		C32.5,27.4,35.9,24.1,35.9,18.5z"/>
	<path fill="#FFFFFF" d="M43.3,27.1h3.3V9.9h-3.3V6.2h12.3c5.5,0,9.2,2.4,9.2,6.5c0,2.4-1.2,4.5-4.7,5.6c3.8,0.9,5.4,3.2,5.4,6
		c0,4-3.3,6.7-9.4,6.7H43.3V27.1z M55.3,16.5c3.1,0,4.9-1.2,4.9-3.4c0-2.2-1.8-3.3-4.5-3.3h-4.3v6.7H55.3z M56,27.2
		c3,0,4.8-1.2,4.8-3.5c0-2.1-1.7-3.6-4.9-3.6h-4.6v7.1H56z"/>
	<path fill="#FFFFFF" d="M68.6,27.1H72V9.9h-3.3V6.2H80v3.7h-3.3v17.2H80v3.7H68.6V27.1z"/>
	<path fill="#FFFFFF" d="M83.2,27.1h3.3V9.9h-3.3V6.2h20v7.6h-4.3V9.9h-7.7v7.3h8.8V21h-8.8v6.1h3.5v3.7H83.2V27.1z"/>
	<path fill="#FFFFFF" d="M111.1,27.1h3.5v-4.8l-8-12.5h-2.8V6.2h11.5v3.7h-3.5l5.2,8.3l5.2-8.3h-3.5V6.2h11.2v3.7h-2.7l-7.9,12.2v5
		h3.5v3.7h-11.7V27.1z"/>
</g>
</svg>
