<?xml version="1.0" encoding="utf-8"?>
<!-- Generator: Adobe Illustrator 16.0.4, SVG Export Plug-In . SVG Version: 6.00 Build 0)  -->
<!DOCTYPE svg PUBLIC "-//W3C//DTD SVG 1.1//EN" "http://www.w3.org/Graphics/SVG/1.1/DTD/svg11.dtd">
<svg version="1.1" id="Layer_3" xmlns="http://www.w3.org/2000/svg" xmlns:xlink="http://www.w3.org/1999/xlink" x="0px" y="0px"
	 width="200px" height="100px" viewBox="0 0 200 100" enable-background="new 0 0 200 100" xml:space="preserve">
<g>
	<path fill="#8C8D90" d="M15.672,67.064c1.62-0.862,5.021-2.483,5.021-6.152V33.759h-3.887v-4.966h14.035v4.966h-3.886V60.91
		c0,7.234-4.642,8.691-9.393,10.474L15.672,67.064z"/>
	<path fill="#8C8D90" d="M33.974,45.257c0-10.094,7.125-17.112,17.112-17.112c9.932,0,17.111,7.018,17.111,17.112
		c0,10.093-7.179,17.057-17.111,17.057C41.099,62.314,33.974,55.351,33.974,45.257z M61.774,45.257
		c0-7.342-4.589-11.876-10.688-11.876c-6.154,0-10.689,4.534-10.689,11.876c0,7.394,4.535,11.822,10.689,11.822
		C57.185,57.079,61.774,52.651,61.774,45.257z"/>
	<path fill="#8C8D90" d="M71.602,56.7h4.426V33.759h-4.426v-4.966h16.356c7.288,0,12.254,3.129,12.254,8.582
		c0,3.13-1.619,6.046-6.208,7.45c5.019,1.242,7.179,4.264,7.179,7.989c0,5.345-4.373,8.853-12.524,8.853H71.602V56.7L71.602,56.7z
		 M87.526,42.612c4.103,0,6.478-1.62,6.478-4.535c0-2.86-2.375-4.372-6.045-4.372h-5.776v8.907H87.526z M88.498,56.755
		c3.995,0,6.424-1.62,6.424-4.643c0-2.859-2.212-4.75-6.585-4.75h-6.153v9.393H88.498z"/>
	<path fill="#8C8D90" d="M105.289,56.7h4.428V33.759h-4.428v-4.966h15.114v4.966h-4.426V56.7h4.426v4.966h-15.114V56.7z"/>
	<path fill="#8C8D90" d="M124.722,56.7h4.429V33.759h-4.429v-4.966h26.668v10.093h-5.776v-5.074H135.41v9.661h11.659v5.075H135.41
		V56.7h4.695v4.966H124.72V56.7H124.722z"/>
	<path fill="#8C8D90" d="M161.863,56.7h4.643v-6.369l-10.635-16.573h-3.778v-4.966h15.331v4.912h-4.696l6.909,11.012l6.964-11.012
		h-4.696v-4.912h14.951v4.966h-3.616l-10.472,16.247V56.7h4.642v4.966h-15.546V56.7L161.863,56.7z"/>
</g>
</svg>
