<?xml version="1.0" encoding="utf-8"?>
<!-- Generator: Adobe Illustrator 16.0.4, SVG Export Plug-In . SVG Version: 6.00 Build 0)  -->
<!DOCTYPE svg PUBLIC "-//W3C//DTD SVG 1.1//EN" "http://www.w3.org/Graphics/SVG/1.1/DTD/svg11.dtd">
<svg version="1.1" id="Layer_2" xmlns="http://www.w3.org/2000/svg" xmlns:xlink="http://www.w3.org/1999/xlink" x="0px" y="0px"
	 width="200px" height="100px" viewBox="0 0 200 100" enable-background="new 0 0 200 100" xml:space="preserve">
<g>
	<path fill="#8C8D90" d="M35.639,50.719c-4.928,8.125-16.594,15.285-23.523,4.929c-1.771-2.658-1.04-7.046,0.539-10.975
		c-2.888-2.848-2.503-7.738-0.501-10.856c2.542-4.005,7.123-3.735,5.891-2.658c-2.926,2.502-6.622,7.969-4.351,11.242
		c0.617-1.154,1.271-2.232,1.925-3.118c3.312-4.581,9.818-10.05,15.477-9.818c3.197,0.115,6.737,2.156,5.391,6.006
		c-1.733,5.044-6.391,9.587-11.666,10.857c-3.657,0.848-6.468,0.848-8.624,0.308c-1.887,4.12-2.272,7.894-0.693,9.895
		c1.656,2.117,7.083,1.889,13.091-2.503c2.31-1.655,4.621-4.042,6.699-7.276C36.138,45.405,37.257,48.062,35.639,50.719z
		 M17.273,44.558c3.157,0.616,7.161-0.732,9.973-2.733c2.695-1.887,6.083-5.353,6.391-8.625c0.345-3.697-6.083,0.424-8.47,2.271
		C21.816,38.09,19.121,41.324,17.273,44.558z"/>
	<path fill="#8C8D90" d="M51.614,51.642c-3.58,5.389-7.161,6.275-8.972,4.967c-0.846-0.614-1.154-1.461-1.193-2.425
		c-2.195,2.542-4.698,4.235-7.238,1.693c-2.502-2.542-1.501-5.352,1.425-9.779c1.541-2.349,3.735-4.274,5.391-5.12
		c1.385-0.693,2.31-0.501,3.542,0.462c0.731,0.539,1.887,1.001,1.924,2.04c1.04,0.385,2.118,1.54,1.771,2.042
		c-0.346,0.462-1.578,2.002-2.733,3.85c-1.347,2.078-2.926,4.966-1.81,5.737c1.001,0.691,5.044-3.889,7.044-6.739
		C51.229,47.638,53.039,49.525,51.614,51.642z M41.103,49.564l0.693-1.001c1.039-1.617,2.618-4.505,2.041-5.045
		c-0.656-0.539-3.581,1.849-6.006,5.429c-1.617,2.35-3.273,5.314-2.849,5.89C35.328,55.301,37.253,54.376,41.103,49.564z"/>
	<path fill="#8C8D90" d="M77.484,51.373c-4.814,7.16-10.243,6.891-11.358,3.195c-0.424-1.387,0.386-3.773,1.194-5.275
		c0.192-0.347,0.385-0.731,0.577-1.078c-3.389,3.235-7.046,6.43-8.817,7.97c-0.424,0.346-0.923,0.424-1.501,0.039
		c-0.616-0.425-1.463-1.192-1.001-2.427c0.385-1.001,1.58-3.31,2.773-5.582c-3.506,3.505-6.778,6.698-9.357,8.701
		c-0.269,0.193-0.576,0.193-0.884,0.114c-1.079-0.23-2.58-1.307-2.156-2.155c0.846-1.615,7.662-13.05,8.546-14.359
		c0.732-1.078,3.156,1.232,2.232,3.118c-0.963,1.886-2.927,5.197-4.466,7.778c3.157-2.965,7.584-7.278,9.625-9.049
		c0.77-0.693,1.462-0.962,2.002-0.616c1.347,0.923,1.423,1.617,1.077,2.232c-0.5,0.811-2.618,4.312-4.582,7.7
		c4.082-3.696,8.895-8.239,11.743-11.28c0.655-0.693,3.889,0.77,2.85,2.232c-1.812,2.657-5.276,7.314-6.584,10.087
		c-0.538,1.154-1.039,2.194-0.654,2.542c0.386,0.386,4.39-2.118,7.855-7.162C77.137,47.292,78.795,49.409,77.484,51.373z"/>
	<path fill="#8C8D90" d="M87.685,50.832c-1.347,2.119-6.199,7.085-9.549,6.084c-1-0.268-1.655-0.885-2.04-1.615
		c-2.581,4.233-6.238,10.203-8.856,13.281c-1.578,1.888-2.425-0.307-2.464-1.116c-0.077-0.998,2.464-5.89,3.736-7.893
		c0.499-0.809,1.385-2.077,2.463-3.503l11.011-15.824c0.425-0.192,1.079,0.154,1.541,0.732c2.001-0.886,3.502-0.462,4.658,0.307
		C90.033,42.517,92.113,43.979,87.685,50.832z M80.639,48.292c-2.349,3.388-3.312,5.931-2.657,6.393
		c2.425,1.653,10.549-10.82,8.854-12.052C85.875,41.94,82.487,45.56,80.639,48.292z"/>
	<path fill="#8C8D90" d="M108.509,51.642c-3.579,5.389-7.159,6.275-8.968,4.967c-0.848-0.614-1.156-1.461-1.194-2.425
		c-2.194,2.542-4.697,4.235-7.237,1.693c-2.504-2.542-1.503-5.352,1.423-9.779c1.541-2.349,3.735-4.274,5.391-5.12
		c1.387-0.693,2.311-0.501,3.542,0.462c0.73,0.539,1.887,1.001,1.926,2.04c1.038,0.385,2.117,1.54,1.77,2.042
		c-0.346,0.462-1.577,2.002-2.734,3.85c-1.348,2.078-2.926,4.966-1.809,5.737c1,0.691,5.043-3.889,7.045-6.739
		C108.127,47.638,109.938,49.525,108.509,51.642z M98,49.564l0.694-1.001c1.04-1.617,2.618-4.505,2.039-5.045
		c-0.652-0.539-3.58,1.849-6.004,5.429c-1.616,2.35-3.273,5.314-2.85,5.89C92.226,55.301,94.15,54.376,98,49.564z"/>
	<path fill="#8C8D90" d="M111.745,48.639c-1.579,2.234-3.004,5.467-2.272,6.122c1.116,0.925,5.468-3.658,7.47-6.506
		c0.463-0.654,2.271,1.154,0.849,3.271c-3.582,5.392-7.394,6.432-9.05,4.928c-4.349-4.004-1.73-7.238,0.693-10.741
		c1.463-2.118,3.119-3.888,3.274-4.12c0.81-0.885,2.657,1.771,2.231,2.542C114.246,45.329,112.552,47.522,111.745,48.639z
		 M119.676,37.936c-0.771,1.193-2.157,1.617-3.081,1.001c-0.963-0.577-1.076-2.04-0.308-3.195c0.732-1.193,2.117-1.618,3.081-1.04
		C120.291,35.318,120.445,36.78,119.676,37.936z"/>
	<path fill="#8C8D90" d="M133.92,51.642c-1.308,1.926-2.541,3.234-4.005,4.236c-1.923,1.27-4.889,2.348-7.661,3.388
		c-2.156,3.272-5.045,8.048-6.546,9.856c-1.579,1.926-2.579,0.615-3.041,0c-0.73-0.923-0.232-2.888,0.848-5.006
		c1.117-2.154,2.388-3.735,5.082-5.311c0.153-0.194,0.731-0.924,1.385-1.812c-1.039,0.231-2.154-0.076-3.234-1.192
		c-2.503-2.504-1.502-5.312,1.384-9.701c1.581-2.349,3.736-4.234,5.392-5.082c1.347-0.732,2.31-0.54,3.543,0.423
		c0.691,0.539,1.847,1.04,1.887,2.04c1.038,0.385,2.04,1.502,1.769,2.002c-0.385,0.848-4.696,7.741-6.467,10.473
		c0.693-0.308,1.462-0.693,1.693-0.808c0.924-0.425,2.657-1.503,3.658-2.543c1.271-1.346,2.542-2.964,3.465-4.236
		C133.534,47.677,135.344,49.525,133.92,51.642z M123.601,49.525l0.693-0.962c1.039-1.617,2.619-4.505,2.041-5.045
		c-0.653-0.539-3.582,1.849-6.007,5.429c-1.578,2.311-3.271,5.275-2.812,5.852C117.863,55.223,119.79,54.298,123.601,49.525z"/>
	<path fill="#8C8D90" d="M137.69,40.516c0.733-1.078,3.158,1.232,2.194,3.118c-0.961,1.925-2.964,5.351-4.544,7.968
		c3.929-3.771,8.357-8.276,11.012-11.125c0.732-0.886,4.004,0.732,2.964,2.156c-1.886,2.618-5.272,7.315-6.62,10.087
		c-0.54,1.153-1.04,2.193-0.654,2.541c0.423,0.386,4.428-2.119,7.893-7.162c0.539-0.809,2.193,1.27,0.886,3.271
		c-4.812,7.161-10.279,6.892-11.395,3.197c-0.388-1.386,0.383-3.772,1.192-5.275c0.114-0.194,0.23-0.385,0.347-0.578
		c-3.312,3.311-7.085,6.776-8.855,8.238c-0.694,0.542-3.543-0.96-2.965-2.078C129.991,53.26,136.805,41.825,137.69,40.516z"/>
	<path fill="#8C8D90" d="M153.783,48.639c-1.579,2.234-3.004,5.467-2.271,6.122c1.116,0.925,5.467-3.658,7.47-6.506
		c0.462-0.654,2.271,1.154,0.848,3.271c-3.581,5.392-7.393,6.432-9.049,4.928c-4.35-4.004-1.73-7.238,0.694-10.741
		c1.463-2.118,3.118-3.888,3.272-4.12c0.808-0.885,2.657,1.771,2.231,2.542C156.287,45.329,154.592,47.522,153.783,48.639z
		 M161.714,37.936c-0.77,1.193-2.156,1.617-3.08,1.001c-0.962-0.577-1.076-2.04-0.309-3.195c0.732-1.193,2.117-1.618,3.081-1.04
		C162.33,35.318,162.483,36.78,161.714,37.936z"/>
	<path fill="#8C8D90" d="M171.646,52.256c-1.655,0.116-5.697-0.382-7.624-0.382c4.851,3.233,0.269,11.974-3.426,14.628
		c-2.889,2.079-4.733,0.926-6.2-0.036c-0.616-0.425-1.345-0.771-1.809-1.963c-0.424-1-0.308-2.852,0.23-4.429
		c0.539-1.963,1.963-4.812,3.774-7.971c-0.116-0.231-0.232-0.462-0.347-0.653c-0.348-0.655,0.692-1.156,1.615-1.502
		c4.314-7.162,10.011-15.208,12.129-17.789c0.888-1.155,2.35-0.116,2.773,0.693c0.424,0.733,1.077,2.118-0.926,4.851
		c-1.73,2.388-6.083,8.163-8.816,11.511c3.08-0.192,7.933,0.039,9.704,0.231C174.073,49.602,172.686,52.182,171.646,52.256z
		 M162.444,52.914c-0.886-0.311-1.809,0.151-2.619,0.615c-2.465,4.042-5.352,10.126-3.964,11.55
		c1.192,1.269,4.504-2.271,6.467-6.737C163.216,56.3,163.793,53.375,162.444,52.914z"/>
	<path fill="#8C8D90" d="M189.702,51.642c-1.309,1.926-2.581,3.234-4.043,4.236c-1.887,1.27-4.852,2.348-7.622,3.388
		c-2.157,3.272-5.044,8.048-6.547,9.856c-1.579,1.926-2.581,0.615-3.043,0c-0.731-0.923-0.23-2.888,0.849-5.006
		c1.116-2.154,2.386-3.735,5.081-5.311c0.154-0.232,0.848-1.078,1.615-2.12c-1.384,0.656-2.811,0.616-4.156-0.653
		c-2.271-2.117-1.309-5.774,1.654-10.126c2.116-3.079,3.081-4.158,3.735-4.889c1.001-1.156,3.349,1.347,2.695,2.194l-4.119,5.698
		c-1.654,2.31-3.272,5.274-2.849,5.852c0.386,0.462,2.271-0.463,6.081-5.236l5.931-8.546c0.425-0.809,3.503,0.847,2.887,2.04
		c-0.73,1.078-3.002,4.85-4.428,7.2c-0.538,0.885-2.232,3.58-3.619,5.853c0.733-0.347,1.655-0.77,1.927-0.923
		c0.922-0.425,2.656-1.502,3.656-2.544c1.271-1.344,2.541-2.963,3.427-4.235C189.316,47.677,191.088,49.525,189.702,51.642z"/>
</g>
</svg>
