<?xml version="1.0" encoding="utf-8"?>
<!-- Generator: Adobe Illustrator 16.0.4, SVG Export Plug-In . SVG Version: 6.00 Build 0)  -->
<!DOCTYPE svg PUBLIC "-//W3C//DTD SVG 1.1//EN" "http://www.w3.org/Graphics/SVG/1.1/DTD/svg11.dtd">
<svg version="1.1" id="Layer_2" xmlns="http://www.w3.org/2000/svg" xmlns:xlink="http://www.w3.org/1999/xlink" x="0px" y="0px"
	 width="200px" height="100px" viewBox="0 0 200 100" enable-background="new 0 0 200 100" xml:space="preserve">
<g>
	<path fill="#8C8D90" d="M55.091,49.594c-4.56,7.849-10.906,13.866-18.428,13.866c-6.487,0-8.132-4.418-8.132-9.025
		c0-2.257,0.376-4.981,1.128-7.851c-6.628-1.929-9.168-6.958-9.168-11.378c0-4.794,2.915-8.837,6.159-10.625L29,27.919
		c-0.941,0.517-4.465,3.055-4.465,7.475c0,3.103,2.584,6.582,6.252,7.428c3.526-10.39,10.765-21.343,18.522-21.343
		c4.325,0,6.628,3.432,6.628,7.522c0,3.573-1.598,8.367-5.642,12.316c-3.479,3.385-8.603,5.971-15.184,5.971h-0.659
		c-0.847,2.772-1.223,5.453-1.223,7.287c0,2.82,1.034,5.123,4.514,5.123c4.606,0,11.047-4.277,15.326-11.565
		C53.775,48.136,54.856,48.889,55.091,49.594z M35.817,43.34c4.561-0.142,8.368-2.068,11.048-4.843
		c2.727-2.82,4.231-6.298,4.231-8.884c0-1.975-0.847-3.385-2.539-3.385C44.326,26.228,38.967,35.019,35.817,43.34z"/>
	<path fill="#8C8D90" d="M67.504,49.594c-3.761,6.533-7.945,11.799-12.646,11.799c-3.808,0-6.111-2.633-2.727-11.047l9.402-23.271
		h4.937L56.316,52.227c-2.069,5.123-1.176,6.018-0.141,6.018c2.397,0,6.111-4.654,9.309-10.107
		C66.188,48.136,67.27,48.889,67.504,49.594z"/>
	<path fill="#8C8D90" d="M91.904,49.594c-3.62,6.298-7.852,11.799-12.692,11.799c-4.279,0-4.279-3.762-4.279-3.762
		s-2.821,3.762-6.628,3.762c-3.009,0-4.513-2.304-4.513-5.266c0-5.03,4.418-20.356,12.411-20.356c3.948,0,4.653,3.808,4.653,3.808
		l6.252-3.197l-6.393,15.845c-1.928,4.795-1.316,6.018-0.095,6.018c2.351,0,6.064-4.654,9.261-10.107
		C90.588,48.136,91.669,48.889,91.904,49.594z M75.449,52.977l3.901-9.637c0,0,0.048-3.385-2.303-3.385
		c-4.419,0-8.557,11.705-8.557,15.42c0,1.314,0.517,1.929,1.551,1.929C72.817,57.303,75.449,52.977,75.449,52.977z"/>
	<path fill="#8C8D90" d="M89.884,48.136c2.116-3.621,5.17-9.45,6.958-13.399l3.948,1.645c-1.645,6.535-0.658,14.197-0.611,16.972
		c0,1.363-0.141,2.634-0.517,3.762c2.537-1.316,5.312-5.312,7.427-8.979c0.704,0,1.786,0.753,2.022,1.458
		c-3.433,6.017-7.239,11.799-14.855,11.799c-4.185,0-6.207-2.54-6.489-3.196l2.586-1.6c0.846,0.94,1.74,1.271,2.68,1.271
		c1.834,0,2.82-1.225,2.82-5.642c0-2.399-0.281-5.924-0.188-9.591c-1.222,2.397-2.585,4.889-3.76,6.958
		C91.199,49.594,90.118,48.841,89.884,48.136z"/>
	<path fill="#8C8D90" d="M107.093,48.136c2.113-3.621,5.169-9.45,6.956-13.399l3.949,1.645c-1.647,6.535-0.658,14.197-0.611,16.972
		c0,1.363-0.142,2.634-0.517,3.762c2.538-1.316,5.312-5.312,7.427-8.979c0.706,0,1.787,0.753,2.022,1.458
		c-3.433,6.017-7.239,11.799-14.857,11.799c-4.185,0-6.204-2.54-6.487-3.196l2.587-1.6c0.846,0.94,1.738,1.271,2.68,1.271
		c1.832,0,2.82-1.225,2.82-5.642c0-2.399-0.282-5.924-0.188-9.591c-1.223,2.397-2.586,4.889-3.761,6.958
		C108.407,49.594,107.325,48.841,107.093,48.136z"/>
	<path fill="#8C8D90" d="M138.731,49.594c-3.761,6.533-7.944,11.799-12.647,11.799c-3.807,0-6.11-2.633-2.727-11.047L129,36.382
		h4.937l-6.395,15.845c-2.066,5.123-1.175,6.018-0.141,6.018c2.396,0,6.11-4.654,9.309-10.107
		C137.415,48.136,138.497,48.889,138.731,49.594z M130.88,30.6c0-1.599,1.271-2.868,2.868-2.868s2.915,1.27,2.915,2.868
		c0,1.598-1.316,2.915-2.915,2.915S130.88,32.199,130.88,30.6z"/>
	<path fill="#8C8D90" d="M156.878,49.594c-3.15,5.688-7.9,9.872-15.138,9.448c0,0,0.141,1.316-0.095,2.727
		c-0.519,3.009-1.646,6.254-3.103,8.886c-1.601,2.821-3.573,4.89-6.629,4.89c-3.245,0-5.406-2.303-2.962-8.32l13.915-34.459
		c2.868-7.288,5.83-9.449,9.214-9.449c3.762,0,5.358,3.197,3.715,8.415c-1.129,3.573-3.715,9.685-6.019,13.868
		c-2.443,4.419-4.185,6.534-9.919,6.723l-1.082,2.634c0.895,0.799,2.209,1.504,4.091,1.504c5.028,0,8.743-2.633,11.987-8.32
		C155.562,48.136,156.643,48.889,156.878,49.594z M137.651,57.773l-4.938,12.129c-0.752,2.021-0.281,2.303,0.047,2.35
		c2.633,0.376,5.358-7.615,6.018-10.719C139.296,59.042,138.684,58.102,137.651,57.773z M147.382,33.797l-6.44,15.842
		c2.351-0.329,3.713-1.69,5.404-4.795c3.48-6.487,5.644-12.458,6.207-14.386c0.376-1.316,0.705-3.15-0.423-3.15
		C150.296,27.309,148.697,30.552,147.382,33.797z"/>
	<path fill="#8C8D90" d="M180.009,49.594c-4.844,8.508-10.719,11.234-15.092,13.305c0,0-0.61,1.599-1.363,3.336
		c-1.88,4.325-4.183,8.322-8.885,8.322c-3.104,0-4.983-1.882-4.797-4.515c0.188-2.818,2.682-4.607,5.173-5.829
		c1.738-0.846,4.419-1.88,5.452-2.537l1.316-3.197c0,0-2.304,2.914-5.404,2.914c-3.433,0-5.973-2.633-2.493-11.047l5.642-13.963
		h4.938l-6.395,15.845c-1.928,4.747-1.314,5.547-0.328,5.547c2.772,0,6.157-5.406,7.991-8.979l4.982-12.412h4.937l-9.355,23.035
		c4.419-2.256,8.32-5.452,11.658-11.281C178.691,48.136,179.772,48.889,180.009,49.594z M154.058,71.171
		c1.314-0.047,3.29-1.41,4.983-5.876c-1.41,0.562-2.727,1.034-4.043,1.832c-1.129,0.706-2.351,1.692-2.351,2.822
		C152.647,70.701,153.211,71.217,154.058,71.171z"/>
</g>
</svg>
