<?xml version="1.0" encoding="utf-8"?>
<!-- Generator: Adobe Illustrator 16.0.4, SVG Export Plug-In . SVG Version: 6.00 Build 0)  -->
<!DOCTYPE svg PUBLIC "-//W3C//DTD SVG 1.1//EN" "http://www.w3.org/Graphics/SVG/1.1/DTD/svg11.dtd">
<svg version="1.1" id="Layer_2" xmlns="http://www.w3.org/2000/svg" xmlns:xlink="http://www.w3.org/1999/xlink" x="0px" y="0px"
	 width="200px" height="100px" viewBox="0 0 200 100" enable-background="new 0 0 200 100" xml:space="preserve">
<g>
	<path fill="#8C8D90" d="M52.117,25.178c-1.717,0-3.497-0.183-5.458-0.49c0.245,0.246,0.429,1.043,0.245,1.533
		c-1.963,7.728-3.434,13.801-4.599,18.891c6.808,0.184,12.634,0,12.634,0.858c0,0.675-1.349,1.289-8.219,1.289
		c-1.409,0-3.066,0-4.907-0.062c-1.227,5.582-2.146,9.936-2.943,13.923c-0.247,1.104-1.167,1.595-2.086,1.595
		c-1.227,0-2.576-0.858-2.576-2.393c0-3.497,1.288-8.524-3.435-13.371l-3.619-0.184c-1.717-0.062-2.515-0.982-2.515-1.902
		c0-0.982,0.858-1.901,2.576-1.901c1.84,0,3.373,0.674,4.662,1.717c1.717,0.123,3.25,0.184,4.723,0.246
		c0.919-4.968,2.146-10.304,4.294-17.911c0.368-1.286,1.778-2.33,3.127-2.698c-2.208-0.306-4.479-0.551-6.809-0.551
		c-1.286,0-2.636,0.245-3.924,0.245c-0.674,0-0.981-0.306-0.981-0.858c0-1.165,1.594-3.19,2.943-3.373
		c1.656-0.246,3.436-0.307,5.153-0.307c3.127,0,6.256,0.246,9.261,0.246c1.842,0,3.62-0.369,5.215-0.369
		c1.043,0,1.533,1.227,1.533,2.577c0,1.41-0.552,2.882-1.716,3.067C53.896,25.116,53.037,25.178,52.117,25.178z M36.232,47.074
		c-0.737,0-1.595,0-2.393-0.062c0.736,1.228,1.349,2.699,1.717,4.294C35.742,49.896,35.985,48.485,36.232,47.074z"/>
	<path fill="#8C8D90" d="M54.018,56.028c0,1.655,0.43,2.576,1.35,2.576c3.558,0,5.888-11.838,8.648-24.535
		c0.429-2.024,1.901-2.945,3.373-2.945c1.35,0,2.637,0.921,2.637,2.515c0,2.454-5.152,19.627-5.152,23.86
		c0,1.104,0.246,1.653,0.799,1.653c2.207,0,5.949-7.85,6.624-9.197c0.369-0.737,0.736-1.043,1.043-1.043
		c0.246,0,0.429,0.185,0.429,0.612c0,0.246-0.062,0.615-0.245,1.043c-0.858,2.148-4.846,12.205-9.998,12.205
		c-1.84,0-4.048-0.979-4.169-5.151c-1.657,3.189-3.682,5.151-6.196,5.151c-3.435,0-4.6-2.636-4.6-6.562
		c0-5.951,2.577-14.843,3.803-22.202c0.307-1.902,1.902-2.761,3.312-2.761c1.349,0,2.639,0.797,2.639,2.27
		c0,0.184,0,0.429-0.062,0.613C56.287,43.885,54.018,52.043,54.018,56.028z"/>
	<path fill="#8C8D90" d="M73.338,62.96c-1.289,0-2.7-0.921-2.7-2.759c0-0.186,0.062-0.369,0.062-0.554
		c1.104-9.2,2.515-15.394,5.397-25.208c0.307-1.105,1.287-1.595,2.269-1.595c1.472,0,3.005,1.042,3.005,2.821
		c0,1.594-1.043,4.108-1.41,5.704c2.515-5.766,5.644-10.243,8.833-10.243c3.619,0,4.539,3.312,4.539,5.582
		c0,6.932-5.949,17.541-5.949,21.283c0,0.798,0.306,1.286,0.981,1.286c2.698,0,6.931-8.095,7.665-9.319
		c0.37-0.615,0.859-1.044,1.167-1.044c0.184,0,0.307,0.123,0.307,0.429c0,0.246-0.062,0.615-0.246,1.105
		c-0.737,2.207-5.214,12.512-10.55,12.512c-2.453,0-4.785-1.717-4.785-5.397c0-5.52,5.887-16.622,5.887-20.731
		c0-0.797-0.307-1.472-0.981-1.472c-2.269,0-7.667,9.507-10.058,20.608L76.585,56.4c-0.307,1.715-0.551,3.188-0.735,4.537
		C75.606,62.286,74.501,62.96,73.338,62.96z"/>
	<path fill="#8C8D90" d="M111.978,56.52c0,1.657,0.367,2.578,1.228,2.578c2.147,0,4.722-5.768,6.379-9.14
		c0.31-0.676,0.798-1.044,1.104-1.044c0.247,0,0.369,0.245,0.369,0.612c0,0.248-0.062,0.615-0.245,1.046
		c-1.534,3.739-3.986,12.203-9.998,12.203c-2.454,0-3.863-2.636-3.863-6.317c0-0.183,0-0.552,0.062-0.919
		c-2.087,4.478-4.54,7.236-6.626,7.236c-3.311,0-4.722-3.556-4.722-8.34c0-9.324,5.396-23.185,12.451-23.185
		c1.653,0,2.636,1.473,3.189,2.944c1.288-5.766,2.699-11.286,3.619-14.66c0.245-0.921,1.042-1.35,1.961-1.35
		c1.534,0,3.374,1.227,3.374,3.497C120.257,25.668,111.978,49.403,111.978,56.52z M110.75,36.709
		c-0.061-0.797-0.367-1.901-1.716-1.901c-4.11,0-7.852,14.351-7.852,20.792c0,1.841,0.306,3.006,1.042,3.006
		c2.453,0,4.845-6.135,6.687-13.495C109.462,42.474,110.076,39.592,110.75,36.709z"/>
	<path fill="#8C8D90" d="M124.06,56.704c0,1.288,0.307,2.023,1.104,2.023c2.271,0,5.643-7.422,6.317-8.77
		c0.369-0.676,0.737-1.044,1.042-1.044c0.246,0,0.43,0.245,0.43,0.612c0,0.309-0.062,0.615-0.244,1.046
		c-0.858,2.146-4.416,12.203-9.569,12.203c-2.392,0-4.416-1.716-4.416-6.317c0-3.678,2.331-15.026,4.785-24.042
		c0.308-1.044,1.288-1.594,2.451-1.594c1.534,0,3.19,1.042,3.19,3.128C129.149,37.199,124.06,51.98,124.06,56.704z M124.182,25.054
		c0-2.638,2.147-6.071,5.521-6.071c2.516,0,3.62,1.472,3.62,3.188c0,2.576-2.517,5.827-6.381,5.827
		C125.04,27.999,124.182,26.649,124.182,25.054z"/>
	<path fill="#8C8D90" d="M136.694,51.246c-0.491,2.516-1.043,5.091-1.595,8.095c6.747-0.858,12.145-2.76,15.332-9.382
		c0.307-0.615,0.677-0.922,0.983-0.922c0.245,0,0.429,0.245,0.429,0.675c0,0.247-0.062,0.552-0.184,0.859
		c-3.005,7.298-8.833,10.365-16.314,11.776c2.207,1.042,3.987,5.765,3.987,10.18c0,4.11-1.594,7.914-6.012,7.914
		c-3.68,0-5.029-3.435-5.029-8.896c0-5.887,1.534-14.045,3.373-22.754c3.619-17.173,6.931-32.324,15.333-32.324
		c1.473,0,2.576,0.796,2.822,1.778c0.92,0.491,2.392,1.901,2.392,5.275C152.211,38.181,142.582,51,136.694,51.246z M135.895,71.546
		c0-2.269-0.488-4.906-1.654-7.544c-2.025,9.508-2.331,11.162-2.331,12.45s0.432,2.087,1.043,2.087
		C134.485,78.539,135.895,75.594,135.895,71.546z M148.223,18.798c-2.759,0-6.439,10.733-11.163,30.422
		c5.643-5.028,12.39-22.325,12.39-28.091C149.45,19.719,149.388,18.798,148.223,18.798z"/>
	<path fill="#8C8D90" d="M147.241,76.638c0-6.746,6.502-9.262,12.697-13.064c0.245-1.841,0.553-3.865,0.92-6.01
		c-1.595,3.311-3.68,5.213-6.256,5.213c-3.681,0-4.907-2.575-4.907-6.438c0-6.195,3.067-15.641,4.417-23.186
		c0.185-1.227,1.104-1.717,2.206-1.717c1.596,0,3.437,1.166,3.437,2.7c0,2.146-0.981,5.275-1.719,8.586
		c-1.226,5.398-2.515,11.165-2.515,13.556c0,1.47,0.369,2.329,1.289,2.329c3.312,0,4.537-7.113,7.236-17.602
		c0.981-4.601,1.719-7.852,1.719-7.852c0.242-1.042,1.228-1.533,2.268-1.533c1.535,0,3.251,0.981,3.251,2.393
		c0,1.655-0.981,2.33-4.906,24.84c2.452-2.271,4.723-5.09,6.562-8.893c0.307-0.677,0.799-1.107,1.104-1.107
		c0.245,0,0.368,0.185,0.368,0.615c0,0.244-0.062,0.612-0.244,1.104c-2.271,5.705-5.338,9.445-8.465,12.205
		c-2.761,14.536-7.36,19.873-12.205,19.873C150.493,82.648,147.241,80.011,147.241,76.638z M152.088,80.747
		c5.765,0,6.868-9.324,7.359-13.371c-4.355,2.758-9.629,5.704-9.629,10.61c0,1.35,0.735,2.146,1.654,2.7
		C151.657,80.747,151.841,80.747,152.088,80.747z"/>
</g>
</svg>
