<?xml version="1.0" encoding="utf-8"?>
<!-- Generator: Adobe Illustrator 16.0.4, SVG Export Plug-In . SVG Version: 6.00 Build 0)  -->
<!DOCTYPE svg PUBLIC "-//W3C//DTD SVG 1.1//EN" "http://www.w3.org/Graphics/SVG/1.1/DTD/svg11.dtd">
<svg version="1.1" id="Layer_1" xmlns="http://www.w3.org/2000/svg" xmlns:xlink="http://www.w3.org/1999/xlink" x="0px" y="0px"
	 width="200px" height="100px" viewBox="0 0 200 100" enable-background="new 0 0 200 100" xml:space="preserve">
<g>
	<g>
		<path fill="#8C8D90" d="M33.3,46.859l-4.22,8.526h-2.076l-4.196-8.526v9.824h-3.482V41.078h4.709l4.019,8.573l4.041-8.573h4.688
			v15.606h-3.483L33.3,46.859L33.3,46.859z"/>
		<path fill="#8C8D90" d="M55.756,56.682l-1.451-3.37h-6.54l-1.452,3.37h-3.706l6.742-15.604h3.371l6.742,15.604H55.756z
			 M51.047,45.721l-1.965,4.531h3.907L51.047,45.721z"/>
		<path fill="#8C8D90" d="M77.948,46.257c0,2.5-0.991,4.115-2.971,4.845l3.953,5.582h-4.287l-3.461-4.979h-2.411v4.979h-3.483
			V41.078h5.916c2.426,0,4.156,0.408,5.19,1.228C77.429,43.124,77.948,44.441,77.948,46.257z M73.75,48.11
			c0.431-0.387,0.648-1.001,0.648-1.841c0-0.841-0.223-1.418-0.67-1.73c-0.446-0.313-1.228-0.468-2.344-0.468h-2.612v4.621h2.544
			C72.507,48.69,73.318,48.496,73.75,48.11z"/>
		<path fill="#8C8D90" d="M85.539,41.078h3.481v6.407l5.895-6.407h4.307l-6.206,6.898c0.536,0.744,1.524,2.131,2.968,4.164
			c1.443,2.03,2.523,3.546,3.238,4.542h-4.062l-4.577-6.162l-1.562,1.741v4.421h-3.481V41.078L85.539,41.078z"/>
		<path fill="#8C8D90" d="M116.657,41.078v3.103h-7.77v3.215h6.988v2.969h-6.988v3.237h8.016v3.081h-11.497V41.078H116.657z"/>
		<path fill="#8C8D90" d="M130.632,44.091v12.59h-3.48v-12.59h-4.42v-3.014h12.321v3.014H130.632z"/>
		<path fill="#8C8D90" d="M141.614,41.078h3.48v15.606h-3.48V41.078z"/>
		<path fill="#8C8D90" d="M163.67,41.078v3.059h-7.233v3.371h6.876v3.058h-6.876v6.116h-3.481V41.078H163.67z"/>
		<path fill="#8C8D90" d="M177.354,56.682h-3.48V50.52l-5.403-9.442h3.772l3.37,5.805l3.371-5.805h3.772l-5.402,9.442V56.682z"/>
	</g>
	<rect x="191.821" y="26.5" fill="#8C8D90" width="2.679" height="46.434"/>
	<rect x="5.192" y="26.5" fill="#8C8D90" width="2.679" height="46.434"/>
	<rect x="5.192" y="26.5" fill="#8C8D90" width="189.308" height="2.679"/>
	<rect x="5.192" y="70.256" fill="#8C8D90" width="189.308" height="2.678"/>
</g>
</svg>
